<svg width="64" height="64" viewBox="0 0 64 64" fill="none" xmlns="http://www.w3.org/2000/svg">
  <!-- Rounded Square Background -->
  <rect width="64" height="64" rx="16" fill="#18181b"/>
  
  <!-- Nerdy Octocat Silhouette -->
  <g transform="translate(12, 12) scale(2.5)">
    <path d="M8 0.2C3.7 0.2 0.3 3.6 0.3 7.9c0 3.5 2.3 6.4 5.4 7.4.4.1.5-.2.5-.4v-1.5c-2.2.5-2.7-1-2.7-1-.4-1-.9-1.3-.9-1.3-.7-.5.1-.5.1-.5.8.1 1.2.8 1.2.8.7 1.2 1.8.9 2.3.7.1-.5.3-.9.6-1.1-1.8-.2-3.7-.9-3.7-4 0-.9.3-1.6.8-2.2-.1-.2-.4-1 .1-2.1 0 0 .7-.2 2.2.8.6-.2 1.2-.3 1.8-.3s1.2.1 1.8.3c1.5-1 2.2-.8 2.2-.8.5 1.1.2 1.9.1 2.1.5.6.8 1.3.8 2.2 0 3.1-1.9 3.8-3.7 4 .3.2.6.7.6 1.4v2.1c0 .2.1.5.5.4 3.1-1 5.4-3.9 5.4-7.4C15.7 3.6 12.3 0.2 8 0.2z" fill="#a1a1aa"/>
    
    <!-- Blue Nerdy Glasses (Specs) -->
    <rect x="4" y="6" width="3.5" height="2" rx="0.5" fill="#3B82F6"/>
    <rect x="8.5" y="6" width="3.5" height="2" rx="0.5" fill="#3B82F6"/>
    <rect x="7.5" y="6.5" width="1" height="0.5" fill="#3B82F6"/>
    
    <!-- Subtle Brain Spark -->
    <circle cx="13" cy="3.5" r="1" fill="#3B82F6">
      <animate attributeName="opacity" values="1;0.4;1" dur="2s" repeatCount="indefinite" />
    </circle>
  </g>
</svg>
